<svg width="32" height="32" viewBox="0 0 32 32" fill="none" xmlns="http://www.w3.org/2000/svg">
<rect width="32" height="32" rx="4" fill="#00C070"/>
<path d="M17.7368 20.5158C17.7368 21.4316 17.4842 21.6842 16.5684 21.6842H14.5474C13.6316 21.6842 13.3789 21.4316 13.3789 20.5158V18.8105C13.3789 17.3263 13.5368 16.8211 14.7053 15.3368L16.8526 12.6526C17.3895 11.9895 17.5158 11.6105 17.5158 10.8842V10.1895C17.5158 8.92632 17.0105 8.42105 15.9053 8.42105C14.8 8.42105 14.2947 8.92632 14.2947 10.1895V11.8947C14.2947 12.8105 14.0421 13.0632 13.1263 13.0632H11.1684C10.2526 13.0632 10 12.8105 10 11.8947V10.9474C10 6.02105 11.5158 4 15.9053 4C20.4526 4 22 6.21053 22 10.3158V10.6316C22 12.2421 21.7474 13 20.7053 14.3263L18.7158 16.8211C17.8632 17.8947 17.7368 18.2105 17.7368 19.3158V20.5158ZM17.9579 25.2526V26.0737C17.9579 27.3684 17.3263 28 16.0316 28H15.2105C13.9474 28 13.2842 27.3684 13.2842 26.0737V25.2526C13.2842 23.9895 13.9474 23.3263 15.2105 23.3263H16.0316C17.3263 23.3263 17.9579 23.9895 17.9579 25.2526Z" fill="#FFE18E"/>
</svg>
