<svg width="60" height="60" viewBox="0 0 60 60" fill="none" xmlns="http://www.w3.org/2000/svg">
<path d="M30 59C46.0163 59 59 46.0163 59 30C59 13.9837 46.0163 1 30 1C13.9837 1 1 13.9837 1 30C1 46.0163 13.9837 59 30 59Z" fill="#00C070"/>
<path d="M40.3969 23.9272C40.3969 19.7826 37.3027 15.6001 30.3899 15.6001C24.2196 15.6001 20.6121 18.6126 19.9563 24.312L19.8585 25.1615L27.1438 25.8429L27.2039 24.9745C27.4116 21.967 28.8612 21.5616 30.2525 21.5616C32.1442 21.5616 33.103 22.4812 33.103 24.2947C33.103 29.6008 20.4406 33.6533 19.3082 43.4633L19.2002 44.4001H40.3969V37.8128H30.3307C33.5185 34.4316 40.3969 30.7216 40.3969 23.9272Z" fill="#FFD342"/>
</svg>
