<svg width="60" height="60" viewBox="0 0 60 60" fill="none" xmlns="http://www.w3.org/2000/svg">
<path d="M30 59C46.0163 59 59 46.0163 59 30C59 13.9837 46.0163 1 30 1C13.9837 1 1 13.9837 1 30C1 46.0163 13.9837 59 30 59Z" fill="#00C070"/>
<path d="M36.0891 28.5985C38.0769 27.1862 39.082 25.404 39.082 23.2814C39.082 19.5332 35.5235 15.6001 29.5677 15.6001C20.282 15.6001 19.7456 23.7221 19.5418 24.1004L26.4992 25.1741C26.5976 24.9078 26.4319 21.5098 29.4089 21.5098C32.0894 21.5098 32.1907 24.2201 31.0328 25.3034C30.2178 26.0666 29.7124 25.9442 27.2005 26.1348L26.2863 32.2693C27.1468 32.074 28.5984 31.592 29.905 31.592C31.4045 31.592 32.9176 32.6137 32.9176 34.8969C32.9176 37.3541 31.3049 38.454 29.7067 38.454C26.3084 38.454 26.4333 34.7496 26.3362 34.5056L19.2002 35.2916C19.2918 35.4605 19.4332 44.4001 29.7462 44.4001C35.7166 44.4001 40.3926 40.2891 40.3926 35.1137C40.3926 32.177 38.7559 29.7735 36.0891 28.5985Z" fill="#FFD342"/>
</svg>
