<svg width="61" height="60" viewBox="0 0 61 60" fill="none" xmlns="http://www.w3.org/2000/svg">
<path fill-rule="evenodd" clip-rule="evenodd" d="M30.5 12.9265C39.8309 12.9265 47.5735 20.4706 47.5735 30C47.5735 39.3309 39.8309 47.0735 30.5 47.0735C20.9706 47.0735 13.4265 39.3309 13.4265 30C13.4265 20.4706 20.9706 12.9265 30.5 12.9265ZM30.5 3C45.3897 3 57.5 15.1103 57.5 30C57.5 44.8897 45.3897 57 30.5 57C15.6103 57 3.5 44.8897 3.5 30C3.5 15.1103 15.6103 3 30.5 3ZM30.5 9.35294C18.9853 9.35294 9.85294 18.4853 9.85294 30C9.85294 41.3162 18.9853 50.4485 30.5 50.4485C41.8162 50.4485 50.9485 41.3162 50.9485 30C50.9485 18.4853 41.8162 9.35294 30.5 9.35294ZM21.9632 33.5735L26.1324 33.1765C26.5294 35.7574 27.9191 37.1471 30.6985 37.1471C32.2868 37.1471 34.6691 36.5515 34.6691 34.3676C34.6691 32.1838 31.0956 31.7868 29.3088 31.3897C26.1324 30.3971 22.7574 29.0074 22.7574 25.0368C22.7574 21.4632 25.5368 19.875 28.7132 19.2794V17.0956H32.2868V19.2794C35.4632 19.875 38.0441 21.6618 38.2426 25.6324L34.0735 25.8309C33.6765 23.4485 32.4853 22.6544 30.3015 22.6544C28.9118 22.6544 26.7279 23.0515 26.7279 24.8382C26.7279 26.625 29.9044 27.0221 31.2941 27.4191C35.2647 28.4118 38.8382 29.6029 38.8382 34.3676C38.8382 38.5368 35.6618 40.3235 32.2868 40.7206V42.9044H28.7132V40.7206C24.9412 40.125 22.5588 37.9412 21.9632 33.5735Z" fill="#00C070"/>
</svg>
