<svg width="61" height="60" viewBox="0 0 61 60" fill="none" xmlns="http://www.w3.org/2000/svg">
<path d="M47.375 3.28125H13.625C11.015 3.28373 8.51268 4.32164 6.66716 6.16716C4.82164 8.01268 3.78373 10.515 3.78125 13.125V46.875C3.78373 49.485 4.82164 51.9873 6.66716 53.8328C8.51268 55.6784 11.015 56.7163 13.625 56.7188H47.375C49.985 56.7163 52.4873 55.6784 54.3328 53.8328C56.1784 51.9873 57.2163 49.485 57.2188 46.875V13.125C57.2163 10.515 56.1784 8.01268 54.3328 6.16716C52.4873 4.32164 49.985 3.28373 47.375 3.28125ZM12.6125 29.3062C12.4862 29.304 12.3655 29.2537 12.275 29.1656C12.229 29.119 12.1935 29.0631 12.1708 29.0017C12.1482 28.9403 12.139 28.8747 12.1438 28.8094L13.0063 13.3688C13.0122 13.2787 13.0436 13.1922 13.0967 13.1192C13.1497 13.0462 13.2224 12.9897 13.3062 12.9562C13.3911 12.9251 13.4831 12.9191 13.5713 12.9391C13.6595 12.9591 13.74 13.0041 13.8031 13.0687L17.6188 16.875L17.7125 16.7719C19.3132 15.23 21.2382 14.0653 23.3469 13.3629C25.4555 12.6606 27.6944 12.4384 29.9 12.7125C34.888 13.2776 39.5261 15.5536 43.025 19.1531C43.7142 19.8519 44.3651 20.5873 44.975 21.3563C45.0427 21.4398 45.0797 21.544 45.0797 21.6516C45.0797 21.7591 45.0427 21.8634 44.975 21.9469C44.9031 22.0288 44.8053 22.0838 44.6979 22.1025C44.5904 22.1213 44.4798 22.1027 44.3844 22.05C37.4938 18.0844 29.7219 18.5625 25.0344 23.25C24.8563 23.4281 24.6875 23.6062 24.5188 23.7937L28.3344 27.6094C28.4016 27.6714 28.4488 27.7521 28.4699 27.841C28.491 27.93 28.485 28.0233 28.4528 28.1089C28.4206 28.1945 28.3636 28.2685 28.289 28.3215C28.2145 28.3744 28.1258 28.404 28.0344 28.4062L12.6125 29.3062ZM48.0125 46.6219C48.0065 46.7119 47.9752 46.7985 47.9221 46.8715C47.869 46.9445 47.7963 47.0009 47.7125 47.0344C47.6277 47.0655 47.5356 47.0715 47.4474 47.0515C47.3593 47.0316 47.2788 46.9865 47.2156 46.9219L43.3813 43.125L43.2875 43.2281C41.9038 44.5812 40.2641 45.6446 38.4644 46.3561C36.6647 47.0676 34.7411 47.4129 32.8062 47.3719C32.2375 47.3719 31.6562 47.3438 31.0625 47.2875C26.0745 46.7224 21.4364 44.4464 17.9375 40.8469C17.2483 40.1481 16.5974 39.4127 15.9875 38.6438C15.9185 38.5578 15.882 38.4502 15.8845 38.3399C15.8869 38.2297 15.9281 38.1239 16.0009 38.041C16.0737 37.9582 16.1733 37.9036 16.2823 37.887C16.3913 37.8703 16.5027 37.8927 16.5969 37.95C23.4875 41.9156 31.2594 41.4375 35.9469 36.75C36.125 36.5719 36.2938 36.3937 36.4625 36.2062L32.6469 32.3906C32.5797 32.3286 32.5325 32.2479 32.5114 32.159C32.4903 32.07 32.4962 31.9767 32.5284 31.8911C32.5607 31.8055 32.6177 31.7315 32.6922 31.6785C32.7668 31.6256 32.8554 31.596 32.9469 31.5938L48.3875 30.7312C48.4529 30.7258 48.5186 30.7348 48.5801 30.7575C48.6417 30.7801 48.6975 30.816 48.7437 30.8625C48.7898 30.9091 48.8253 30.965 48.8479 31.0264C48.8705 31.0879 48.8798 31.1534 48.875 31.2188L48.0125 46.6219Z" fill="#00C070"/>
</svg>
