<?xml version="1.0" encoding="utf-8"?>
<!-- Generator: Adobe Illustrator 19.2.0, SVG Export Plug-In . SVG Version: 6.00 Build 0)  -->
<svg version="1.1" id="casino-payments" xmlns="http://www.w3.org/2000/svg" xmlns:xlink="http://www.w3.org/1999/xlink" x="0px"
	 y="0px" viewBox="0 0 1400 900" style="enable-background:new 0 0 1400 900;" xml:space="preserve">
<style type="text/css">
	.st0{fill:url(#card-form_1_);}
</style>
<g>
	<g id="ecopayz_1_">
		
			<linearGradient id="card-form_1_" gradientUnits="userSpaceOnUse" x1="700" y1="-235.0079" x2="700" y2="664.9921" gradientTransform="matrix(1 0 0 -1 0 664.9921)">
			<stop  offset="0" style="stop-color:#B3B3B3"/>
			<stop  offset="0.6582" style="stop-color:#E6E6E6"/>
		</linearGradient>
		<path id="card-form_5_" class="st0" d="M1300,900H100C45,900,0,855,0,800V100C0,45,45,0,100,0h1200c55,0,100,45,100,100v700
			C1400,855,1355,900,1300,900z"/>
	</g>
	<g>
		<g>
			<g>
				<path d="M750.4,276.4c-28.3,120-31.9,138.9-35.6,159.6h-0.6c-4.8-28.2-7-39.8-32.5-159.6h-48.3C610.2,391,606.8,413.2,602.9,436
					h-0.6c-3.9-24.9-6.7-40.1-34.7-159.6H519l61.7,218.3h42.5c23.4-112.5,27-128.3,33.8-170.3h0.6c7.3,41.9,11.3,63.2,33.8,170.3
					h43.8l61.5-218.3H750.4z"/>
			</g>
		</g>
		<g>
			<g>
				<path d="M708.6,603.9c0-19.4-4.6-22.6-13.2-26.3c10.3-3.5,16.1-13.3,16.1-24.8c0-8.9-5-29.4-32.7-29.4h-52.5v103.9h21.3v-40.6
					H670c16.1,0,17,5.5,17,19.7c0,10.7,0.8,16.1,2.3,21h24v-2.7C708.6,622.9,708.6,619.2,708.6,603.9z M673,569.3h-25.4v-27.8h27
					c12.7,0,15.2,8.1,15.2,13.6C689.8,565.3,684.3,569.3,673,569.3z"/>
			</g>
		</g>
		<g>
			<g>
				<polygon points="528.8,523.5 528.9,541.9 560.2,541.9 560.2,627.4 581.9,627.4 581.9,541.9 613.3,541.9 613.3,523.5 				"/>
			</g>
		</g>
		<g>
			<g>
				<g>
					<path d="M469.3,367.4c-0.6-10.6-1-16.7-1-16.7s-0.9,6-2.6,16.6c-0.7,5.2-1.8,11.5-3,18.8c-0.9,7.2-4.3,14.9-6.7,23.5
						c-2.5,8.5-5.5,17.6-10.4,26.4c-4.6,8.9-8.6,18.5-15.5,26.9c-3.1,4.3-6.2,8.7-9.3,13.2c-3.3,4.3-7.6,8-11.4,12.1
						c-7.3,8.4-16.2,15.3-25,22c-8.3,7.1-18.9,12-27.7,17.9c-10.2,4.4-19.1,9.9-29.2,13.2c-9.6,3.8-19,7.1-28.3,9.5
						c-9,2.9-18,4.3-26,6.3c-5.1,0.9-9.8,1.7-14.3,2.3c0.4-1.4,1-2.7,1.5-4.1c4.3-12.9,7.5-26.3,9.6-40.4c0.9-7.2,1.6-14.4,2.1-21.8
						c0.4-7.5,0.3-15.3-0.5-23.4c-7.5,3.1-14.4,6.7-20.9,10.5c-6.3,3.9-12.3,8-18.2,12.2c-11.5,8.5-21.9,17.6-31.2,27.4
						c-18.9,19.4-34.4,40.9-47.2,64l-1.6,2.8c-7.9,14.3-6.4,32.7,5.2,45.5c15.3,16.9,32,32.7,51.4,46.2c9.7,6.8,20,13,31.2,18.6
						c11.2,5.5,22.8,10.7,36.6,14.1c-0.7-14.2-3.6-26.6-6.8-38.7c-3.1-11.8-7.2-22.8-11.8-33.4c10.3-3.3,22.8-8,36.8-13.9
						c9.1-4.3,19-8.4,29-14.2c10.2-5.2,20.4-11.5,30.8-18.5c10.6-6.4,20.4-15.3,30.7-23.1c9.3-9.4,19.6-17.6,27.9-28.2
						c8.5-10.2,16.8-20.3,23.2-31.8c3.2-5.6,6.9-10.8,9.6-16.5c2.4-5.8,4.9-11.5,7.3-17.1c5.4-10.9,7.7-22.5,10.4-33
						c3.2-10.5,4.3-20.7,4.9-30.1c0.6-9.4,2.2-17.8,1.6-25.3C470,379.3,469.7,372.7,469.3,367.4z"/>
				</g>
			</g>
			<g>
				<g>
					<path d="M406.7,283.6c-14.8-17.4-31-33.7-50.1-47.7c-9.5-7.1-19.6-13.7-30.7-19.5c-11.1-5.8-22.6-11.3-36.3-15.2
						c0.3,14.2,2.8,26.7,5.6,38.9c2.8,11.9,6.5,23,10.9,33.7c-10.4,3.1-23.1,7.3-37.2,12.9c-9.2,4.1-19.3,7.8-29.4,13.3
						c-10.3,4.9-20.8,10.9-31.4,17.6c-10.8,6.1-20.8,14.7-31.4,22.2c-9.6,9.1-20.2,17-28.7,27.4c-8.8,9.9-17.4,19.8-24.1,31.1
						c-3.4,5.5-7.3,10.6-10.1,16.2c-2.7,5.7-5.3,11.4-7.8,16.9c-5.7,10.7-8.3,22.2-11.3,32.7c-3.5,10.4-4.8,20.6-5.8,30
						c-0.8,9.4-2.8,17.7-2.3,25.3c0.2,7.5,0.4,14.1,0.6,19.5c0.4,10.6,0.5,16.7,0.5,16.7s1.1-6,3.1-16.5c1-5.2,2.2-11.4,3.5-18.6
						c1.1-7.2,4.8-14.8,7.4-23.3c2.8-8.5,5.9-17.4,11.2-26c4.8-8.8,9.2-18.3,16.3-26.5c3.2-4.2,6.5-8.5,9.7-12.9
						c3.4-4.2,7.8-7.8,11.6-11.7c7.4-8.1,16.5-14.7,25.5-21.2c8.6-6.8,19.1-11.5,28.2-17.1c10.3-4.1,19.4-9.3,29.6-12.3
						c9.7-3.5,19.3-6.5,28.6-8.6c9.1-2.7,18.2-3.8,26.2-5.5c5.1-0.7,9.9-1.4,14.3-1.9c-0.5,1.4-1,2.6-1.6,4
						c-4.6,12.7-8.2,26.1-10.8,40.1c-1.1,7.1-2.1,14.4-2.8,21.8c-0.6,7.5-0.7,15.2-0.2,23.4c7.6-2.9,14.6-6.3,21.2-9.9
						c6.4-3.7,12.7-7.6,18.6-11.6c11.8-8.1,22.4-17,32.1-26.5c19.4-18.9,35.6-39.9,49.2-62.5l1.7-2.8
						C418.9,315.2,417.9,296.8,406.7,283.6z"/>
				</g>
			</g>
		</g>
		<g>
			<g>
				<polygon points="1173.2,456 1173.2,399.4 1279.6,399.4 1279.6,360.9 1173.2,360.9 1173.2,315 1289,315 1289,276.4 1128.5,276.4 
					1128.5,494.7 1294.2,494.7 1294.2,456 				"/>
			</g>
		</g>
		<g>
			<g>
				<polygon points="1107.6,541.9 1107.6,523.5 1033.6,523.5 1033.7,627.4 1055.4,627.4 1055.4,583.7 1101.1,583.7 1101.1,565.3 
					1055.4,565.3 1055.4,541.9 				"/>
			</g>
		</g>
		<g>
			<g>
				<path d="M1081.9,445.4c0-40.8-9.7-47.5-27.6-55.4c21.6-7.3,33.8-28,33.8-52c0-18.9-10.7-61.7-68.8-61.7H908.9v218.3h44.8v-85.5
					h47.1c33.7,0,35.5,11.6,35.5,41.4c0,22.5,1.8,33.7,4.9,44.1h50.4v-5.8C1081.9,485.3,1081.9,477.3,1081.9,445.4z M1007.1,372.4
					h-53.4V314h56.8c26.8,0,31.9,17,31.9,28.6C1042.4,364.2,1030.8,372.4,1007.1,372.4z"/>
			</g>
		</g>
		<g>
			<g>
				<polygon points="1143.4,608.9 1143.4,582.1 1194,582.1 1194,563.7 1143.4,563.7 1143.4,541.9 1198.6,541.9 1198.6,523.5 
					1122.2,523.5 1122.2,627.4 1201,627.4 1201,608.9 				"/>
			</g>
		</g>
		<g>
			<g>
				<path d="M1301,603.9c0-19.4-4.7-22.6-13.2-26.3c10.3-3.5,16.1-13.3,16.1-24.8c0-8.9-5.1-29.4-32.7-29.4h-52.5v103.9h21.3v-40.6
					h22.4c16,0,17,5.5,17,19.7c0,10.7,0.8,16.1,2.3,21h24v-2.7C1301,622.9,1301,619.2,1301,603.9z M1265.5,569.3H1240v-27.8h27
					c12.8,0,15.2,8.1,15.2,13.6C1282.3,565.3,1276.8,569.3,1265.5,569.3z"/>
			</g>
		</g>
		<g>
			<g>
				<path d="M989.8,568.2l-25.3-6.2c-4.4-1-11.1-2.7-11.1-10.8c0-9.4,9.9-12.5,18.1-12.5c19,0,20.7,11.1,21.3,15.6h20.7
					c-0.2-12.7-8.7-33.6-40.5-33.6c-33.7,0-39.9,20.5-39.9,32c0,22.9,16.2,26.6,33,30.5l11.1,2.6c11.1,2.6,18.8,4.8,18.8,12.9
					c0,11-11.5,13.4-21.7,13.4c-19,0-21.9-11-22-16.8h-20.7c0,12.9,6.5,34.7,44.4,34.7c9.1,0,40.9-2.8,40.9-34
					C1017.1,577.5,1004.1,571.7,989.8,568.2z"/>
			</g>
		</g>
		<g>
			<g>
				<rect x="820.7" y="276.3" width="45.6" height="218.3"/>
			</g>
		</g>
		<g>
			<g>
				<path d="M781.9,523.5h-25.1l-37,103.9h22.9l7.2-21.4h38.3l6.7,21.4h23.6L781.9,523.5z M755.8,588.1l13.3-41.1h0.2l13,41.1H755.8
					z"/>
			</g>
		</g>
		<g>
			<g>
				<polygon points="895.9,523.5 895.9,595.9 895.6,595.9 854.3,523.5 831.5,523.5 831.5,627.4 851.7,627.4 851.7,553.3 852,553.3 
					894.4,627.4 916.2,627.4 916.2,523.5 				"/>
			</g>
		</g>
	</g>
</g>
</svg>
