<svg width="60" height="60" viewBox="0 0 60 60" fill="none" xmlns="http://www.w3.org/2000/svg">
<path d="M30.1139 43.134C18.3096 43.134 8.74789 33.612 8.74789 21.87C8.74789 10.122 18.3096 0.599976 30.1139 0.599976C41.9183 0.599976 51.48 10.122 51.48 21.864C51.48 33.612 41.9183 43.134 30.1139 43.134ZM39.338 19.116H39.0968H33.9904V19.104C33.3755 19.104 32.851 18.75 32.646 18.258C32.6279 18.222 32.6159 18.18 32.6038 18.144L31.0363 13.764L30.9941 13.656C30.8555 13.332 30.5058 13.11 30.1079 13.11C29.6799 13.11 29.3181 13.368 29.1915 13.722L27.606 18.132V18.138C27.5939 18.186 27.5758 18.228 27.5577 18.276C27.3527 18.762 26.8282 19.11 26.2193 19.11V19.122H21.1431H20.8718C20.4076 19.182 20.0519 19.542 20.0519 19.986C20.0519 20.268 20.2026 20.52 20.4317 20.676C20.4437 20.688 20.4618 20.694 20.4739 20.706L24.6277 23.46C25.0075 23.694 25.2608 24.09 25.2608 24.54C25.2608 24.642 25.2487 24.744 25.2246 24.834C25.2065 24.912 25.1764 24.984 25.1462 25.05L23.5727 29.454C23.5727 29.46 23.5667 29.466 23.5667 29.472L23.5546 29.508C23.5305 29.586 23.5124 29.67 23.5124 29.76C23.5124 30.24 23.9404 30.63 24.471 30.63C24.6458 30.63 24.8086 30.588 24.9473 30.516L25.11 30.408C25.11 30.408 25.11 30.408 25.11 30.402L29.2337 27.678C29.2639 27.66 29.294 27.636 29.3242 27.618C29.5533 27.48 29.8245 27.402 30.1139 27.402C30.3973 27.402 30.6626 27.474 30.8796 27.606C30.9278 27.636 30.976 27.666 31.0243 27.702L35.1239 30.414L35.2384 30.492C35.2384 30.492 35.2444 30.492 35.2444 30.498C35.3891 30.576 35.5579 30.624 35.7388 30.624C36.2693 30.624 36.6974 30.234 36.6974 29.754C36.6974 29.664 36.6853 29.574 36.6552 29.496C36.6491 29.484 36.6431 29.472 36.6431 29.454L35.0636 25.032C35.0395 24.978 35.0153 24.918 35.0033 24.858C34.9731 24.756 34.9611 24.648 34.9611 24.54C34.9611 24.126 35.1721 23.76 35.5037 23.52C35.5398 23.496 35.576 23.472 35.6122 23.448L39.7178 20.73L39.8444 20.646C40.0494 20.484 40.182 20.25 40.182 19.986C40.176 19.536 39.8082 19.17 39.338 19.116ZM18.2312 42.21C21.8063 44.256 25.6888 45.276 29.5412 45.372L21.4506 59.4L18.8039 55.644L13.7759 56.256L11.2619 53.142L6.23389 53.196L13.3599 38.496C14.7887 39.9 16.3984 41.166 18.2312 42.21ZM47.9471 38.142L54 53.142H50.232L47.718 56.892H42.69L39.6515 59.4L31.3559 45.132C35.3047 45.036 39.2897 43.998 42.9553 41.922C44.8242 40.86 46.4821 39.57 47.9471 38.142Z" fill="#00C070"/>
</svg>
