<svg width="61" height="60" viewBox="0 0 61 60" fill="none" xmlns="http://www.w3.org/2000/svg">
<g clip-path="url(#clip0_10_4)">
<path d="M30.5343 48.2327C36.2234 48.2327 40.8519 43.6042 40.8519 37.9147C40.8519 32.2256 36.2234 27.5972 30.5343 27.5972C24.8448 27.5972 20.2163 32.2256 20.2163 37.9147C20.2163 43.6042 24.8448 48.2327 30.5343 48.2327ZM24.4561 36.291C25.1346 35.6122 26.2346 35.6122 26.9134 36.291L29.1812 38.5588L34.1552 33.5847C34.8341 32.9063 35.9341 32.9063 36.6125 33.5847C37.2909 34.2631 37.2909 35.3631 36.6125 36.042L30.4098 42.2447C30.0839 42.5706 29.6422 42.7533 29.1812 42.7533C28.7202 42.7533 28.2785 42.5706 27.9525 42.2447L24.4561 38.7478C23.7777 38.0694 23.7777 36.9694 24.4561 36.291Z" fill="#00C070"/>
<path d="M1.78906 54.3809C1.78906 57.4791 4.30997 60 7.40811 60H53.6596C56.7578 60 59.2787 57.4791 59.2787 54.3809V19.3043H1.78906V54.3809ZM30.5343 24.1223C38.1396 24.1223 44.3268 30.3094 44.3268 37.9147C44.3268 45.52 38.1396 51.7076 30.5343 51.7076C22.929 51.7076 16.7415 45.52 16.7415 37.9147C16.7415 30.3094 22.929 24.1223 30.5343 24.1223Z" fill="#00C070"/>
<path d="M59.2782 15.8295V10.4768C59.2782 7.37823 56.7578 4.85779 53.6592 4.85779H50.4915V7.97836C50.4915 8.93875 49.7128 9.71558 48.7538 9.71558C47.7939 9.71558 47.0166 8.93875 47.0166 7.97836V4.85779H43.6017V7.97836C43.6017 8.93875 42.8248 9.71558 41.8644 9.71558C40.9054 9.71558 40.1268 8.93875 40.1268 7.97836V4.85779H20.9419V7.97836C20.9419 8.93875 20.1637 9.71558 19.2047 9.71558C18.2443 9.71558 17.467 8.93875 17.467 7.97836V4.85779H14.0526V7.97836C14.0526 8.93875 13.2739 9.71558 12.3149 9.71558C11.3559 9.71558 10.5777 8.93875 10.5777 7.97836V4.85779H7.4086C4.31 4.85779 1.78955 7.37823 1.78955 10.4768V15.8295H59.2782Z" fill="#00C070"/>
<path d="M50.4915 1.73721C50.4915 0.778198 49.7128 0 48.7538 0C47.7939 0 47.0166 0.778198 47.0166 1.73721V4.85779H50.4915V1.73721Z" fill="#00C070"/>
<path d="M43.6019 1.73721C43.6019 0.778198 42.825 0 41.8646 0C40.9056 0 40.127 0.778198 40.127 1.73721V4.85779H43.6019V1.73721Z" fill="#00C070"/>
<path d="M20.9417 1.73721C20.9417 0.778198 20.1635 0 19.2045 0C18.2441 0 17.4668 0.778198 17.4668 1.73721V4.85779H20.9417V1.73721Z" fill="#00C070"/>
<path d="M14.0525 1.73721C14.0525 0.778198 13.2738 0 12.3148 0C11.3558 0 10.5776 0.778198 10.5776 1.73721V4.85779H14.0525V1.73721Z" fill="#00C070"/>
</g>
<defs>
<clipPath id="clip0_10_4">
<rect width="61" height="60" fill="white"/>
</clipPath>
</defs>
</svg>
