<svg width="60" height="60" viewBox="0 0 60 60" fill="none" xmlns="http://www.w3.org/2000/svg">
<path d="M44.8218 17.2922C43.7898 17.2908 42.7604 17.3944 41.7495 17.6016C38.4359 13.2132 31.0119 4.69347 22.3978 3.27787L20.6414 3L19.7501 6.34499L21.3702 7.0056C22.0864 7.50956 22.7519 8.08199 23.3572 8.7148C21.2601 7.59805 17.1706 6.32402 12.756 9.70046C12.756 9.70046 9.38485 11.9182 7.63895 17.7746C7.63895 17.7746 5.25866 27.5055 0 29.309C0 29.309 29.2818 27.1647 25.6904 12.0598C27.4887 15.7298 27.971 21.324 22.9902 28.9945C22.7805 28.9945 22.576 28.9945 22.3663 28.9945C19.8525 28.993 17.3857 29.6757 15.2303 30.9693C13.0749 32.2629 11.3121 34.1186 10.131 36.3377C8.94981 38.5567 8.39477 41.0553 8.52533 43.5657C8.65589 46.0761 9.46712 48.5036 10.8721 50.5882C12.2771 52.6727 14.2228 54.3356 16.5008 55.3986C18.7788 56.4616 21.3031 56.8847 23.8032 56.6225C26.3033 56.3604 28.6849 55.4228 30.6927 53.9103C32.7006 52.3978 34.259 50.3674 35.201 48.0368C34.8655 47.8323 34.5352 47.6173 34.2154 47.3919C31.7313 45.8078 29.6865 43.6232 28.2698 41.04C26.8531 38.4568 26.1102 35.5583 26.1098 32.6121C26.1098 32.1454 26.136 31.6841 26.1779 31.2279C32.3174 21.8274 31.2898 14.8071 28.7994 10.1933C32.5848 12.7781 35.8092 16.3904 37.8749 18.9962C34.572 20.6964 32.0073 23.5488 30.6665 27.0131C29.3257 30.4775 29.302 34.3133 30.5997 37.794C31.8975 41.2748 34.4267 44.1587 37.7083 45.8997C40.9898 47.6406 44.7959 48.1177 48.4057 47.2405C52.0154 46.3634 55.1781 44.1929 57.2948 41.1402C59.4116 38.0874 60.3353 34.3645 59.891 30.6763C59.4468 26.9882 57.6654 23.591 54.8844 21.1283C52.1033 18.6655 48.5156 17.3081 44.8008 17.3132L44.8218 17.2922ZM18.0357 48.3304L15.5243 51.2822C14.1787 50.1383 13.1167 48.6979 12.4219 47.0742C11.7271 45.4505 11.4183 43.6878 11.5199 41.9247C11.6216 40.1615 12.1308 38.4459 13.0076 36.9128C13.8843 35.3797 15.1048 34.0709 16.5729 33.0892L18.7277 36.3136C17.7577 36.9614 16.9511 37.8254 16.3714 38.8376C15.7916 39.8498 15.4544 40.9827 15.3863 42.1472C15.3182 43.3117 15.5211 44.4761 15.979 45.5489C16.4368 46.6218 17.1373 47.5739 18.0252 48.3304H18.0357ZM40.3391 38.1224L37.8277 41.0742C36.3881 39.8483 35.2524 38.3053 34.5099 36.5663C33.7674 34.8273 33.4383 32.9399 33.5486 31.0522C33.6589 29.1646 34.2054 27.3283 35.1453 25.6876C36.0852 24.0469 37.3929 22.6466 38.9655 21.5967L41.1203 24.8211C40.0465 25.538 39.1536 26.4942 38.5116 27.6144C37.8696 28.7347 37.4962 29.9885 37.4205 31.2774C37.3448 32.5663 37.5689 33.8552 38.0753 35.0429C38.5818 36.2306 39.3566 37.2847 40.3391 38.1224Z" fill="#00C070"/>
</svg>
