<svg width="60" height="60" viewBox="0 0 60 60" fill="none" xmlns="http://www.w3.org/2000/svg">
<path d="M41.25 34.6875C41.25 39.3394 45.0356 43.125 49.6875 43.125H56.25V50.625C56.25 52.6969 54.5719 54.375 52.5 54.375H33.75V40.8544C35.4037 40.1306 36.5625 38.4844 36.5625 36.5625C36.5625 33.9731 34.4644 31.875 31.875 31.875C29.2856 31.875 27.1875 33.9731 27.1875 36.5625C27.1875 38.4844 28.3463 40.1306 30 40.8544V54.375H24.375V45C24.375 44.3531 24.0413 43.7531 23.4937 43.41L19.62 40.9894C20.0531 38.0119 17.7375 35.625 15 35.625C12.4106 35.625 10.3125 37.7231 10.3125 40.3125C10.3125 44.1113 14.5762 46.2844 17.6475 44.1787L20.625 46.0406V54.375H7.5C5.42812 54.375 3.75 52.6969 3.75 50.625V12.1875C3.75 8.56313 6.68813 5.625 10.3125 5.625H46.4062C47.7 5.625 48.75 6.675 48.75 7.96875C48.75 9.2625 47.7 10.3125 46.4062 10.3125H10.7812C9.49125 10.3125 8.4375 11.3663 8.4375 12.6562C8.4375 13.9462 9.49125 15 10.7812 15H52.5C54.5719 15 56.25 16.6781 56.25 18.75V26.25H49.6875C45.0356 26.25 41.25 30.0356 41.25 34.6875Z" fill="#00C070"/>
<path d="M49.6875 30H56.25V39.375H49.6875C47.1037 39.375 45 37.2731 45 34.6875C45 32.1019 47.1037 30 49.6875 30Z" fill="#00C070"/>
</svg>
