<svg width="1400" height="900" viewBox="0 0 1400 900" fill="none" xmlns="http://www.w3.org/2000/svg">
<path d="M1300 900H100C45 900 0 855 0 800V100C0 45 45 0 100 0H1300C1355 0 1400 45 1400 100V800C1400 855 1355 900 1300 900Z" fill="url(#paint0_linear_20_6489)"/>
<g clip-path="url(#clip0_20_6489)">
<path d="M910.921 509.303C894.307 509.303 881.901 501.127 878.435 486.705C875.146 501.127 862.741 509.303 846.133 509.303C818.782 509.303 805.259 491.267 805.259 466.809V393.824H831.91V468.45C831.91 480.29 836.097 488.162 848.517 488.162C860.371 488.162 865.117 480.29 865.301 468.45V393.824H891.768V468.45C891.768 480.29 896.69 488.162 908.545 488.162C920.965 488.162 925.145 480.29 925.145 468.45V393.824H951.795V466.816C951.788 491.274 938.286 509.303 910.921 509.303ZM1032.13 507.499V499.465C1025.74 506.41 1015.53 509.303 1006.03 509.303C988.511 509.303 971.557 498.573 971.557 479.024C971.557 458.237 987.79 450.93 1007.14 450.93H1032.13V447.825C1032.13 433.58 1020.09 432.131 1009.13 432.131C998.18 432.131 989.975 434.139 983.404 437.414L977.025 420.255C981.587 417.907 993.985 411.704 1014.97 411.704C1038.33 411.704 1058.77 425.581 1058.77 448.745V507.492H1032.13V507.499ZM1032.13 466.25H1013.88C1003.84 466.25 998.18 469.9 998.18 477.39C998.18 484.873 1004.39 488.905 1011.5 488.905C1024.83 488.905 1032.13 481.04 1032.13 476.654V466.25ZM1082.29 507.457V373.072H1108.46V507.457H1082.29ZM1132.51 507.457V373.072H1158.68V507.457H1132.51ZM1204.06 468.825V470.466C1204.06 484.52 1214.84 488.912 1226.15 488.912C1237.09 488.912 1248.57 485.22 1256.62 481.407L1264.11 499.472C1259.54 501.848 1244.03 509.31 1223.03 509.31C1196.58 509.31 1177.43 493.085 1177.43 468.606V452.409C1177.43 427.759 1196.58 411.718 1223.03 411.718C1249.68 411.718 1268.84 427.943 1268.84 452.409L1268.66 468.556L1204.06 468.825ZM1223.03 431.947C1213.92 431.947 1204.06 435.78 1204.06 451.659H1242.21C1242.2 435.78 1232.35 431.947 1223.03 431.947ZM1339.26 507.499C1316.28 507.499 1297.11 493.622 1297.11 473.196V434.698H1280.51V413.727H1297.11V384.876H1323.58V413.55H1349.85V434.698H1323.58V474.646C1323.58 481.407 1330.13 486.337 1339.08 486.337H1349.85V507.499H1339.26Z" fill="#00205C"/>
<path d="M402.874 468.825V470.466C402.874 484.52 413.639 488.912 424.935 488.912C435.898 488.912 447.384 485.22 455.426 481.408L462.909 499.472C458.34 501.848 442.829 509.31 421.844 509.31C395.391 509.31 376.238 493.085 376.238 468.606V452.409C376.238 427.76 395.384 411.718 421.844 411.718C448.48 411.718 467.648 427.943 467.648 452.409V468.825H402.874V468.825ZM421.844 431.947C412.72 431.947 402.874 435.78 402.874 451.659H441.011C441.011 435.78 431.152 431.947 421.844 431.947ZM482.091 507.499V490.899L535.93 414.979H486.285V393.824H570.771V410.438L516.394 486.337H573.331V507.499H482.091ZM615.344 468.825V470.466C615.344 484.52 626.102 488.912 637.419 488.912C648.361 488.912 659.861 485.22 667.896 481.408L675.372 499.472C670.803 501.848 655.306 509.31 634.314 509.31C607.847 509.31 588.701 493.085 588.701 468.606V452.409C588.701 427.76 607.847 411.718 634.314 411.718C660.958 411.718 680.118 427.943 680.118 452.409V468.825H615.344V468.825ZM634.314 431.947C625.19 431.947 615.344 435.78 615.344 451.659H653.474C653.474 435.78 643.622 431.947 634.314 431.947ZM720.384 468.825V470.466C720.384 484.52 731.149 488.912 742.459 488.912C753.401 488.912 764.901 485.22 772.936 481.408L780.419 499.472C775.85 501.848 760.346 509.31 739.361 509.31C712.894 509.31 693.741 493.085 693.741 468.606V452.409C693.741 427.76 712.894 411.718 739.361 411.718C765.997 411.718 785.165 427.943 785.165 452.409V468.825H720.384V468.825ZM739.361 431.947C730.237 431.947 720.384 435.78 720.384 451.659H758.521C758.521 435.78 748.662 431.947 739.361 431.947Z" fill="#00205C"/>
<path d="M262.894 464.157V493.156H149.728C141.891 493.156 135.193 486.111 135.193 478.281C135.193 470.459 141.538 464.086 149.374 464.086L262.894 464.157ZM149.728 406.159C141.891 406.159 134.875 413.189 134.875 421.012C134.875 428.842 141.538 435.752 149.374 435.752L262.894 435.865V406.159H149.728ZM127.215 520.811C110.572 520.811 97.0914 514.325 97.0914 493.325C97.0914 465.522 124.464 473.238 124.464 449.926C124.464 426.607 96.3417 435.066 96.3417 407.262C96.3417 386.263 110.572 379.034 127.215 379.034L276.333 378.575V337H120.729C82.8819 337 51.5419 357.455 51.5419 399.8C51.5419 435.745 78.4826 435.745 78.4826 449.926C78.4826 464.1 50 463.725 50 499.677C50 542.036 83.5892 562.47 121.436 562.47H277.04L276.962 520.811H127.215Z" fill="#03C5D3"/>
</g>
<defs>
<linearGradient id="paint0_linear_20_6489" x1="700" y1="900" x2="700" y2="0" gradientUnits="userSpaceOnUse">
<stop stop-color="#CDCCCC"/>
<stop offset="0.6582" stop-color="white"/>
</linearGradient>
<clipPath id="clip0_20_6489">
<rect width="1300" height="225.491" fill="white" transform="translate(50 337)"/>
</clipPath>
</defs>
</svg>
