<svg width="60" height="60" viewBox="0 0 60 60" fill="none" xmlns="http://www.w3.org/2000/svg">
<g clip-path="url(#clip0_15_17)">
<path d="M10.7264 52.8516C10.6933 54.5748 10.6753 56.3718 10.6753 58.2422C10.6753 59.213 11.4623 60 12.4331 60H47.5776C48.5484 60 49.3354 59.213 49.3354 58.2422C49.3354 56.3768 49.3155 54.5796 49.2794 52.8516H10.7264Z" fill="#00C070"/>
<path d="M54.4339 0H54.3032C51.7274 0 49.508 1.93781 49.1406 4.50762C47.8729 13.3782 40.5521 20.2024 31.7573 21.0129V40.6381C31.7573 41.6088 30.9702 42.3959 29.9995 42.3959C29.0287 42.3959 28.2416 41.6088 28.2416 40.6381V21.0128C19.4468 20.2023 12.126 13.3782 10.8583 4.5075C10.491 1.93781 8.27177 0 5.69587 0H5.56532C2.40829 0 -0.0317889 2.79246 0.404031 5.92887C1.54192 14.1198 6.05013 21.4547 12.8372 26.2279C12.2743 29.6477 11.2015 37.4852 10.8169 49.3359H49.1812C48.7742 37.7488 47.663 29.7757 47.0835 26.2758C53.9166 21.5162 58.4541 14.1604 59.5965 5.91949C60.0289 2.79949 57.6006 0 54.4339 0Z" fill="#00C070"/>
<path d="M29.9995 21.1758C34.8537 21.1758 38.7886 17.2408 38.7886 12.3867C38.7886 7.53265 34.8537 3.59766 29.9995 3.59766C25.1454 3.59766 21.2104 7.53265 21.2104 12.3867C21.2104 17.2408 25.1454 21.1758 29.9995 21.1758Z" fill="#00C070"/>
</g>
<defs>
<clipPath id="clip0_15_17">
<rect width="60" height="60" fill="white"/>
</clipPath>
</defs>
</svg>
