<svg width="60" height="60" viewBox="0 0 60 60" fill="none" xmlns="http://www.w3.org/2000/svg">
<path d="M58.2422 3.86719H49.4531V14.4141H60V5.625C60 4.65422 59.213 3.86719 58.2422 3.86719Z" fill="#00C070"/>
<path d="M45.9375 3.86719H1.75781C0.787031 3.86719 0 4.65422 0 5.625V14.4141H45.9375V3.86719Z" fill="#00C070"/>
<path d="M12.8906 30H23.4375V40.5469H12.8906V30Z" fill="#00C070"/>
<path d="M0 54.375C0 55.3458 0.787031 56.1328 1.75781 56.1328H58.2422C59.213 56.1328 60 55.3458 60 54.375V17.9297H0V54.375ZM42.3047 26.4844H48.8672C49.838 26.4844 50.625 27.2714 50.625 28.2422C50.625 29.213 49.838 30 48.8672 30H42.3047C41.3339 30 40.5469 29.213 40.5469 28.2422C40.5469 27.2714 41.3339 26.4844 42.3047 26.4844ZM38.7891 33.5156H48.8672C49.838 33.5156 50.625 34.3027 50.625 35.2734C50.625 36.2442 49.838 37.0312 48.8672 37.0312H38.7891C37.8183 37.0312 37.0312 36.2442 37.0312 35.2734C37.0312 34.3027 37.8183 33.5156 38.7891 33.5156ZM38.7891 40.5469H48.8672C49.838 40.5469 50.625 41.3339 50.625 42.3047C50.625 43.2755 49.838 44.0625 48.8672 44.0625H38.7891C37.8183 44.0625 37.0312 43.2755 37.0312 42.3047C37.0312 41.3339 37.8183 40.5469 38.7891 40.5469ZM9.375 28.2422C9.375 27.2714 10.162 26.4844 11.1328 26.4844H25.1953C26.1661 26.4844 26.9531 27.2714 26.9531 28.2422V42.3047C26.9531 43.2755 26.1661 44.0625 25.1953 44.0625H11.1328C10.162 44.0625 9.375 43.2755 9.375 42.3047V28.2422Z" fill="#00C070"/>
</svg>
