<svg width="60" height="60" viewBox="0 0 60 60" fill="none" xmlns="http://www.w3.org/2000/svg">
<path d="M20 20H6.25C5.25544 20 4.30161 20.3951 3.59835 21.0984C2.89509 21.8016 2.5 22.7554 2.5 23.75V32.5C2.5 33.4946 2.89509 34.4484 3.59835 35.1517C4.30161 35.8549 5.25544 36.25 6.25 36.25H20V20Z" fill="#00C070"/>
<path d="M50.8625 6.89998C50.341 6.54702 49.7389 6.33109 49.1119 6.2721C48.485 6.21312 47.8532 6.31298 47.275 6.56248L22.5 19.2125V37.05L47.2625 49.775C48.4599 50.1428 49.7543 50.0215 50.8625 49.4375C51.3673 49.0933 51.7804 48.6309 52.0658 48.0906C52.3512 47.5503 52.5003 46.9485 52.5 46.3375V9.99998C52.5003 9.38896 52.3512 8.78712 52.0658 8.24684C51.7804 7.70655 51.3673 7.24419 50.8625 6.89998Z" fill="#00C070"/>
<path d="M20.6874 38.75H10.5874L14.0874 51.025C14.3107 51.8106 14.7843 52.5019 15.4363 52.9938C16.0884 53.4856 16.8832 53.7512 17.6999 53.75H19.9999C20.5709 53.7252 21.1294 53.5744 21.6352 53.3084C22.1411 53.0424 22.5819 52.6678 22.9259 52.2114C23.27 51.7551 23.5089 51.2282 23.6254 50.6687C23.7419 50.1092 23.7332 49.5308 23.5999 48.975L20.6874 38.75Z" fill="#00C070"/>
<path d="M55 23.9751V32.2751C55.7294 32.0172 56.3613 31.54 56.8088 30.9089C57.2564 30.2778 57.4978 29.5238 57.5 28.7501V27.5001C57.4978 26.7264 57.2564 25.9723 56.8088 25.3413C56.3613 24.7102 55.7294 24.233 55 23.9751Z" fill="#00C070"/>
</svg>
