<svg width="60" height="60" viewBox="0 0 60 60" fill="none" xmlns="http://www.w3.org/2000/svg">
<path d="M31.1431 25.5863C32.0511 25.5863 32.7899 24.8475 32.7899 23.9396C32.7899 23.0317 32.0511 22.293 31.1431 22.293H28.7612V25.5863H31.1431Z" fill="#00C070"/>
<path d="M17.4937 16.9168V29.9873C17.4937 34.6905 19.794 39.1087 23.647 41.8059L30.0025 46.2548L36.3551 41.8061C40.2068 39.1089 42.5064 34.6914 42.5064 29.9891V16.9168L30 12.0522L17.4937 16.9168ZM36.3093 23.9397C36.3093 24.9858 35.9958 25.9596 35.4592 26.7739C36.7417 27.7864 37.5674 29.3532 37.5674 31.1104C37.5674 34.1563 35.0893 36.6343 32.0435 36.6343H31.7596V38.8582H28.2401V36.6343H23.144V33.1149H25.2417V22.293H23.144V18.7735H28.2401V16.5497H31.7596V18.8117C34.3185 19.1174 36.3093 21.2997 36.3093 23.9397Z" fill="#00C070"/>
<path d="M30.0001 0L6.70068 9.06256V30.047C6.70068 38.5883 10.878 46.6115 17.8751 51.5094L30.0043 59.9999L42.1289 51.5096C49.1236 46.6113 53.2996 38.5888 53.2996 30.0497V9.06256L30.0001 0ZM46.026 29.9891C46.026 35.8385 43.1655 41.3337 38.374 44.6891L30.0029 50.5511L21.6287 44.6891C16.8357 41.3339 13.9741 35.838 13.9741 29.9873V14.5092L30 8.27584L46.0259 14.5092V29.9891H46.026Z" fill="#00C070"/>
<path d="M28.7612 29.1055V33.1145H32.0434C33.1487 33.1145 34.0479 32.2153 34.0479 31.1101C34.0479 30.0047 33.1487 29.1055 32.0434 29.1055H28.7612Z" fill="#00C070"/>
</svg>
