<svg width="61" height="60" viewBox="0 0 61 60" fill="none" xmlns="http://www.w3.org/2000/svg">
<g clip-path="url(#clip0_10_22)">
<path d="M30.5 0C13.958 0 0.5 13.458 0.5 30C0.5 46.542 13.958 60 30.4997 60C47.0417 60 60.4997 46.542 60.4997 30C60.4997 13.458 47.042 0 30.5 0ZM28.087 2.3357H32.7408V6.9895H28.087V2.3357ZM51.4514 30C51.4514 41.5528 42.0526 50.9515 30.5 50.9515C18.9474 50.9515 9.54881 41.5526 9.54881 30C9.54881 18.4474 18.9477 9.04856 30.5 9.04856C42.0526 9.04856 51.4514 18.4474 51.4514 30ZM12.5839 8.79311L15.8746 12.0839L12.5839 15.3746L9.29311 12.0839L12.5839 8.79311ZM7.40341 32.3269H2.7496V27.6731H7.40341V32.3269ZM12.5839 51.2071L9.29311 47.9164L12.5839 44.6256L15.8746 47.9164L12.5839 51.2071ZM32.7408 57.6643H28.087V53.0105H32.7408V57.6643ZM48.4161 51.2071L45.1254 47.9164L48.4161 44.6256L51.7069 47.9164L48.4161 51.2071ZM48.4161 15.3746L45.1254 12.0839L48.4161 8.79311L51.7069 12.0839L48.4161 15.3746ZM53.4244 32.3269V27.6731H58.0782V32.3269H53.4244Z" fill="#00C070"/>
<path d="M13.4268 29.9999C13.4268 39.414 21.0856 47.0732 30.4998 47.0732C39.9139 47.0732 47.5731 39.414 47.5731 29.9999C47.5731 20.5858 39.9139 12.9266 30.4998 12.9266C21.0856 12.9266 13.4268 20.5858 13.4268 29.9999ZM38.6636 28.5526C39.469 29.8624 39.7285 31.0274 39.7285 32.4114C39.7285 35.8319 37.3148 37.6709 34.5706 37.6709C32.6987 37.6709 31.6327 36.7865 31.0513 36.0506L32.0436 39.5661H28.9245L29.8948 36.1313C29.2952 36.8449 28.2455 37.7397 26.4419 37.7397C23.6977 37.7397 21.2708 35.8666 21.2708 32.4457C21.2708 31.0615 21.5239 29.8621 22.329 28.5523C23.5845 26.5096 30.5179 20.6297 30.5179 20.6297C30.5179 20.6297 37.4081 26.5098 38.6636 28.5526Z" fill="#00C070"/>
</g>
<defs>
<clipPath id="clip0_10_22">
<rect width="61" height="60" fill="white"/>
</clipPath>
</defs>
</svg>
