<svg width="60" height="60" viewBox="0 0 60 60" fill="none" xmlns="http://www.w3.org/2000/svg">
<g clip-path="url(#clip0_8_71)">
<path d="M29.9999 0C17.3505 0 7.05859 10.2919 7.05859 22.9413V44.1174C7.05859 47.037 9.43346 49.4119 12.3527 49.4119C15.2723 49.4119 17.6471 47.037 17.6471 44.1174V26.4706C17.6471 23.5515 15.2723 21.1766 12.3527 21.1766C11.7585 21.1766 11.1963 21.297 10.6621 21.4783C11.4152 11.4574 19.7913 3.52936 29.9999 3.52936C40.203 3.52936 48.5769 11.45 49.3368 21.4641C48.8057 21.2823 48.2404 21.1766 47.6471 21.1766C44.7275 21.1766 42.3527 23.5515 42.3527 26.4706V44.1174C42.3527 47.037 44.7275 49.4119 47.6471 49.4119C48.2688 49.4119 48.857 49.2847 49.4118 49.0869V51.1766C49.4118 52.1503 48.619 52.9413 47.6471 52.9413H34.9689C34.2379 50.8914 32.2974 49.4119 29.9999 49.4119C27.0807 49.4119 24.7059 51.7868 24.7059 54.706C24.7059 57.6251 27.0807 60 29.9999 60C32.2974 60 34.2379 58.5201 34.9689 56.4706H47.6471C50.5663 56.4706 52.9412 54.0958 52.9412 51.1766C52.9412 40.562 52.9412 33.5674 52.9412 22.9413C52.9412 10.2919 42.6493 0 29.9999 0Z" fill="#00C070"/>
<path d="M56.4707 25.031V45.5571C58.5202 44.8265 60.0001 42.8861 60.0001 40.5881V30C60.0001 27.7025 58.5202 25.7621 56.4707 25.031Z" fill="#00C070"/>
<path d="M0 30V40.5881C0 42.8861 1.47995 44.8265 3.52936 45.5571V25.031C1.47995 25.7621 0 27.7025 0 30Z" fill="#00C070"/>
</g>
<defs>
<clipPath id="clip0_8_71">
<rect width="60" height="60" fill="white"/>
</clipPath>
</defs>
</svg>
